<?xml version="1.0" encoding="utf-8"?>
<svg width="262px" height="55px" viewBox="0 0 262 55" version="1.1" xmlns:xlink="http://www.w3.org/1999/xlink" xmlns="http://www.w3.org/2000/svg">
  <g id="Group">
    <path d="M259.565 23.7441C259.428 18.1383 257.146 12.8001 253.191 8.83452C249.236 4.86898 243.911 2.57992 238.319 2.44128L237.79 0L237.26 2.44128C231.667 2.57852 226.34 4.86682 222.383 8.83236C218.426 12.7979 216.142 18.137 216.004 23.7441L213.569 24.2748L216.004 24.8055C216.142 30.4112 218.426 35.7489 222.382 39.7135C226.338 43.678 231.663 45.9657 237.255 46.103L237.784 48.5443L238.314 46.103C243.905 45.9657 249.23 43.6778 253.185 39.7131C257.14 35.7484 259.423 30.4107 259.56 24.8055L261.995 24.2748L259.565 23.7441ZM258.252 23.4522L251.528 21.9715C251.049 19.1026 249.689 16.4552 247.637 14.3984C245.585 12.3416 242.944 10.9779 240.082 10.4975L238.605 3.76275C243.749 3.9693 248.626 6.10986 252.267 9.75839C255.908 13.4069 258.044 18.2959 258.252 23.4522ZM241.183 15.5286L240.283 11.4156C242.836 11.9144 245.183 13.1649 247.024 15.0073C248.865 16.8498 250.116 19.2005 250.618 21.7592L246.509 20.8517C246.036 19.6441 245.318 18.5478 244.402 17.6317C243.485 16.7156 242.389 15.9996 241.183 15.5286ZM245.731 20.6978L242.142 19.907L241.358 16.3141C243.3 17.1919 244.855 18.7509 245.731 20.6978ZM236.958 3.76275L235.487 10.4975C232.625 10.9779 229.984 12.3416 227.932 14.3984C225.88 16.4552 224.52 19.1026 224.041 21.9715L217.317 23.4522C217.523 18.2963 219.659 13.4074 223.298 9.75878C226.938 6.11013 231.815 3.96939 236.958 3.76275ZM229.06 20.8676L224.951 21.7592C225.45 19.1976 226.7 16.8434 228.541 14.9979C230.382 13.1524 232.73 11.8996 235.286 11.3997L234.385 15.5127C233.176 15.9872 232.079 16.7082 231.162 17.6299C230.245 18.5517 229.529 19.6542 229.06 20.8676ZM234.211 16.3088L233.427 19.907L229.838 20.6978C230.714 18.7503 232.269 17.1899 234.211 16.3088ZM217.317 25.1027L224.041 26.5834C224.52 29.4522 225.88 32.0996 227.932 34.1565C229.984 36.2133 232.625 37.577 235.487 38.0574L236.958 44.7974C231.815 44.5883 226.939 42.446 223.299 38.7967C219.66 35.1475 217.524 30.2586 217.317 25.1027ZM234.385 33.0262L235.286 37.1446C232.731 36.6434 230.383 35.3901 228.542 33.5448C226.701 31.6995 225.451 29.3461 224.951 26.785L229.06 27.6873C229.531 28.8978 230.248 29.9972 231.165 30.9161C232.081 31.835 233.178 32.5535 234.385 33.0262ZM229.838 27.8571L233.427 28.6585L234.211 32.2567C232.266 31.3742 230.711 29.8094 229.838 27.8571ZM238.605 44.7974L240.082 38.0574C242.944 37.577 245.585 36.2133 247.637 34.1565C249.689 32.0996 251.049 29.4522 251.528 26.5834L258.252 25.1027C258.044 30.2595 255.908 35.1491 252.267 38.7985C248.627 42.4479 243.749 44.5896 238.605 44.7974ZM246.509 27.6873L250.618 26.785C250.119 29.347 248.869 31.7017 247.028 33.5479C245.187 35.3942 242.839 36.6483 240.283 37.1499L241.183 33.0315C242.391 32.5582 243.488 31.8389 244.405 30.919C245.322 29.9992 246.038 28.8988 246.509 27.6873ZM241.358 32.2461L242.142 28.6585L245.731 27.8677C244.853 29.812 243.299 31.3688 241.358 32.2461ZM237.784 24.2854L241.707 28.218L237.784 46.1348L237.784 24.2801L233.861 28.2127L216.004 24.2801L237.8 24.2801L233.877 20.3475L237.8 2.43066L237.8 24.2801L241.723 20.3475L259.597 24.2801L237.784 24.2854Z" id="Shape" fill="#FF0000" fill-rule="evenodd" stroke="none" />
    <path d="M201.455 26.4932L188.114 26.4932C184.191 26.4932 181.607 29.8314 181.496 35.1173C181.385 40.4032 183.99 44.0067 188.379 44.0067L193.112 44.0067L193.112 50.3753C193.112 51.6649 192.429 52.3602 191.418 52.3602C190.406 52.3602 189.708 51.7711 189.708 50.3753L189.708 47.3715L181.766 47.3715C181.623 54.3291 185.785 54.6688 191.052 54.7112C196.32 54.7537 198.221 53.1934 200.529 50.7999L200.529 28.234C200.531 27.7341 200.72 27.2532 201.058 26.886L201.455 26.4932ZM193.085 29.9323L193.085 40.4404C193.085 40.8626 192.918 41.2676 192.62 41.5662C192.322 41.8647 191.918 42.0325 191.497 42.0325C191.076 42.0325 190.672 41.8647 190.374 41.5662C190.076 41.2676 189.909 40.8626 189.909 40.4404L189.909 29.9323C189.909 29.51 190.076 29.105 190.374 28.8064C190.672 28.5079 191.076 28.3401 191.497 28.3401C191.918 28.3401 192.322 28.5079 192.62 28.8064C192.918 29.105 193.085 29.51 193.085 29.9323ZM160.579 43.9696L161.045 43.4813C161.326 43.1994 161.488 42.8188 161.495 42.4199L161.495 28.4887C161.534 28.2149 161.513 27.9358 161.433 27.671C161.353 27.4061 161.217 27.1618 161.034 26.955L160.616 26.4826L168.695 26.4826L168.695 27.544C170.484 26.5506 172.505 26.0506 174.55 26.0952C177.028 26.2067 178.743 27.6024 178.743 29.4068L178.743 42.2395C178.727 42.4654 178.76 42.692 178.838 42.9043C178.917 43.1167 179.04 43.3098 179.199 43.4707L179.664 43.9696L171.622 43.9696L171.622 30.9141C171.622 29.8951 171.014 29.3219 170.188 29.3219C169.983 29.3207 169.781 29.3618 169.593 29.4427C169.405 29.5235 169.235 29.6424 169.095 29.7918C168.955 29.9412 168.847 30.118 168.778 30.3111C168.709 30.5042 168.681 30.7095 168.695 30.9141L168.695 43.9696L160.579 43.9696ZM150.959 32.7663L150.959 29.9906C150.979 29.7642 150.952 29.5362 150.879 29.321C150.806 29.1058 150.689 28.9083 150.535 28.741C150.382 28.5737 150.195 28.4403 149.987 28.3494C149.78 28.2584 149.555 28.2119 149.329 28.2127C149.108 28.2078 148.888 28.2491 148.684 28.334C148.48 28.4189 148.296 28.5456 148.143 28.7059C147.991 28.8663 147.873 29.0567 147.799 29.2651C147.724 29.4736 147.693 29.6954 147.709 29.9163L147.709 31.6465L140.736 31.6465C140.874 30.2401 140.964 29.168 141.853 28.1915C142.981 26.939 145.003 26.4667 147.772 26.4879L158.826 26.4879L158.392 26.9443C158.086 27.2455 157.909 27.6551 157.9 28.0854L157.9 42.1546C157.862 42.6425 158.003 43.1274 158.297 43.5185L158.736 43.9908L150.784 43.9908L150.784 43.0249C148.82 43.9908 146.141 44.4685 144.135 44.0014C141.98 43.4707 140.318 41.2683 140.344 38.6094C140.387 34.4062 143.24 32.7716 146.433 32.7716L150.959 32.7663ZM149.329 34.6131C150.499 34.6131 151.017 35.4517 151.017 36.6935L151.017 39.761C151.048 40.2415 150.887 40.7144 150.571 41.0765C150.254 41.4385 149.808 41.6601 149.329 41.6928C148.844 41.6654 148.389 41.447 148.064 41.0852C147.738 40.7234 147.569 40.2475 147.592 39.761L147.592 36.6935C147.592 35.4517 148.159 34.6131 149.329 34.6131ZM138.629 26.4773L138.163 26.9656C137.882 27.2482 137.721 27.6283 137.713 28.027L137.713 41.8255C137.674 42.1002 137.695 42.3801 137.775 42.6458C137.854 42.9115 137.99 43.1568 138.174 43.3646L138.597 43.8369L130.513 43.8369L130.513 42.7755C128.722 43.7654 126.702 44.2651 124.658 44.2243C122.18 44.1129 120.465 42.7118 120.465 40.9127L120.465 28.1756C120.481 27.9488 120.449 27.7212 120.371 27.5079C120.292 27.2946 120.169 27.1006 120.009 26.939L119.543 26.4402L127.591 26.4402L127.591 39.2728C127.591 40.2918 128.205 41.0188 129.031 41.0082C129.243 40.9949 129.45 40.9391 129.64 40.844C129.83 40.7489 130 40.6166 130.138 40.4547C130.276 40.2929 130.38 40.1049 130.445 39.9019C130.509 39.6989 130.532 39.4849 130.513 39.2728L130.513 26.4773L138.629 26.4773ZM117.717 26.4773L104.513 26.4773C100.219 26.4773 97.6306 30.0755 97.6835 35.3561C97.7365 40.6367 100.447 43.9802 104.746 43.9696L109.415 43.9696L109.415 52.8272C109.436 53.0625 109.403 53.2993 109.321 53.5205C109.239 53.7417 109.108 53.9418 108.939 54.1062L108.484 54.6369L117.796 54.6369L117.267 54.0637C117.002 53.7541 116.853 53.3622 116.843 52.9546L116.843 28.2605C116.811 27.7949 116.963 27.3353 117.267 26.9815L117.717 26.4773ZM107.621 28.2074C108.076 28.2002 108.515 28.3715 108.846 28.6849C109.176 28.9983 109.371 29.4288 109.389 29.8845L109.389 40.4563C109.4 40.6735 109.367 40.8906 109.292 41.0948C109.217 41.299 109.103 41.4861 108.955 41.645C108.806 41.8039 108.628 41.9314 108.43 42.0198C108.232 42.1082 108.018 42.1559 107.801 42.1599C107.345 42.1657 106.904 41.9924 106.574 41.6771C106.243 41.3617 106.049 40.9293 106.032 40.4722L106.032 29.8951C106.019 29.6781 106.051 29.4608 106.125 29.2564C106.199 29.0521 106.314 28.8651 106.463 28.707C106.611 28.5489 106.791 28.423 106.99 28.3371C107.189 28.2512 107.404 28.207 107.621 28.2074ZM68.4965 43.9165L68.9624 43.4283C69.244 43.1463 69.4053 42.7657 69.4124 42.3668L69.4124 28.4887C69.4513 28.2149 69.4303 27.9358 69.3507 27.671C69.2712 27.4061 69.1351 27.1618 68.9518 26.955L68.5283 26.4826L76.6126 26.4826L76.6126 27.544C78.4022 26.5506 80.4227 26.0506 82.468 26.0952C84.9456 26.2067 86.661 27.6024 86.661 29.4068L86.661 42.1864C86.6451 42.4123 86.6776 42.639 86.7561 42.8513C86.8346 43.0636 86.9574 43.2567 87.1163 43.4177L87.5822 43.9165L79.5455 43.9165L79.5455 30.9831C79.5455 29.9641 78.9314 29.2954 78.1055 29.3007C77.8956 29.3079 77.6893 29.3577 77.4992 29.4472C77.3091 29.5367 77.1391 29.6639 76.9995 29.8213C76.8599 29.9786 76.7536 30.1627 76.6871 30.3624C76.6206 30.5621 76.5952 30.7732 76.6126 30.9831L76.6126 43.9165L68.4965 43.9165ZM49.9668 24.2802L52.0845 21.8017L61.8364 21.8017L63.9541 24.2802L60.8782 24.2802L60.0523 23.2187L53.8951 23.2187L53.0745 24.2802L49.9668 24.2802ZM66.7071 35.6639L55.4516 35.6639L55.4516 40.7376C55.4516 42.0166 56.2087 42.6481 57.1193 42.5844C57.3447 42.5683 57.5648 42.5077 57.7668 42.406C57.9689 42.3043 58.1488 42.1636 58.2964 41.992C58.444 41.8204 58.5563 41.6212 58.6269 41.4059C58.6974 41.1906 58.7248 40.9635 58.7075 40.7376L58.7075 37.5002L66.6012 37.5002C66.5262 39.0018 65.9691 40.4389 65.0129 41.5973C63.5994 43.423 61.0899 44.5268 57.0716 44.495C51.465 44.4525 47.4785 42.2872 47.4679 35.2924C47.4573 28.2977 51.1209 26.0209 57.1034 26.0315C62.7947 26.0315 65.8653 28.4675 66.5112 32.4001C66.6012 32.9626 66.7177 35.0059 66.7124 35.6427L66.7071 35.6639ZM57.0875 27.9368C57.5186 27.9547 57.9258 28.1405 58.2224 28.4547C58.519 28.7689 58.6816 29.1866 58.6758 29.6191L58.6758 33.3023L55.4516 33.3023L55.4516 29.6191C55.4431 29.4035 55.4777 29.1883 55.5534 28.9863C55.6291 28.7842 55.7443 28.5994 55.8923 28.4426C56.0402 28.2859 56.218 28.1604 56.4151 28.0735C56.6122 27.9866 56.8246 27.9401 57.0398 27.9368L57.0875 27.9368ZM56.8916 45.9385C58.7975 45.9385 60.354 46.6178 60.354 47.4511C60.354 48.2843 58.7975 48.9583 56.8916 48.9583C54.9857 48.9583 53.4715 48.2949 53.4715 47.4511C53.4715 46.6072 55.028 45.9385 56.934 45.9385L56.8916 45.9385ZM36.4983 26.472L45.5567 26.472L44.9373 27.1619C44.7144 27.4692 44.6041 27.8441 44.6249 28.2234L44.6249 42.1758C44.6041 42.5551 44.7144 42.93 44.9373 43.2372L45.5567 43.9324L36.4983 43.9324L37.1177 43.2372C37.3414 42.9304 37.4518 42.5552 37.4301 42.1758L37.4301 28.2446C37.4509 27.8653 37.3406 27.4904 37.1177 27.1832L36.4983 26.472ZM0 21.0322L24.5016 21.0322L24.5016 18.575C24.4974 18.229 24.3632 17.8974 24.1257 17.6463L23.5963 17.0253L32.9141 17.0253L32.2947 17.6463C32.0477 17.9289 31.9171 18.295 31.9294 18.6705L31.9294 21.0322L35.7783 21.0322L35.7783 23.2347L31.9506 23.2347L31.9506 42.2766C31.9526 42.6418 32.0926 42.9926 32.3423 43.2584L32.9088 43.8688L19.3768 43.8688C16.4015 43.8688 13.5055 41.6079 12.9549 36.9695C12.8112 35.7354 12.8112 34.4886 12.9549 33.2545C13.5214 28.8921 16.1315 26.472 19.4562 26.472L24.5016 26.472L24.5016 23.2347L0 23.2347L0 21.0322ZM41.0301 21.0322C42.9414 21.0322 44.4714 21.8389 44.4714 22.8207L44.4714 23.0065C44.4714 23.8821 42.9678 24.5986 41.099 24.6251L40.9243 24.6251C39.0713 24.6145 37.5889 23.8821 37.5889 23.0171C37.5863 22.9888 37.5863 22.9604 37.5889 22.9322C37.5855 22.8951 37.5855 22.8578 37.5889 22.8207C37.5889 21.8283 39.1348 21.0216 41.0513 21.0216L41.0301 21.0322ZM24.491 30.0437L24.491 40.3024C24.491 41.247 24.004 42.1227 22.9875 42.1227C21.971 42.1227 21.4733 41.332 21.4733 40.3024L21.4733 30.049C21.4733 28.8284 22.2622 28.2234 23.0986 28.234C23.9351 28.2446 24.491 29.0407 24.491 30.049" id="Shape" fill="#FF0000" fill-rule="evenodd" stroke="none" />
  </g>
</svg>