<?xml version="1.0" encoding="utf-8"?>
<svg width="334px" height="70px" viewBox="0 0 334 70" version="1.1" xmlns:xlink="http://www.w3.org/1999/xlink" xmlns="http://www.w3.org/2000/svg">
  <g id="logo">
    <path d="M330.355 30.2198C330.181 23.0851 327.277 16.291 322.243 11.2439C317.209 6.19688 310.432 3.28353 303.315 3.10708L302.642 0L301.967 3.10708C294.849 3.28175 288.069 6.19413 283.033 11.2412C277.997 16.2882 275.09 23.0835 274.914 30.2198L271.815 30.8952L274.914 31.5706C275.09 38.7052 277.997 45.4986 283.032 50.5445C288.067 55.5902 294.844 58.5018 301.961 58.6765L302.634 61.7837L303.309 58.6765C310.425 58.5018 317.202 55.5899 322.235 50.5439C327.269 45.498 330.175 38.7045 330.349 31.5706L333.448 30.8952L330.355 30.2198ZM328.684 29.8483L320.127 27.9637C319.517 24.3124 317.786 20.943 315.174 18.3252C312.563 15.7075 309.201 13.9719 305.559 13.3605L303.679 4.78895C310.226 5.05184 316.433 7.77619 321.067 12.4198C325.701 17.0633 328.42 23.2857 328.684 29.8483ZM306.96 19.7637L305.815 14.5289C309.064 15.1638 312.051 16.7553 314.394 19.1002C316.737 21.4452 318.329 24.437 318.968 27.6935L313.739 26.5385C313.137 25.0016 312.223 23.6063 311.057 22.4403C309.89 21.2744 308.495 20.3631 306.96 19.7637ZM312.749 26.3427L308.181 25.3362L307.183 20.7634C309.655 21.8806 311.634 23.8648 312.749 26.3427ZM301.583 4.78895L299.711 13.3605C296.068 13.9719 292.707 15.7075 290.095 18.3252C287.484 20.943 285.753 24.3124 285.143 27.9637L276.585 29.8483C276.847 23.2862 279.566 17.064 284.197 12.4203C288.83 7.77653 295.037 5.05195 301.583 4.78895ZM291.531 26.5588L286.301 27.6935C286.936 24.4333 288.527 21.4371 290.87 19.0882C293.213 16.7394 296.202 15.1449 299.455 14.5087L298.308 19.7434C296.769 20.3473 295.373 21.265 294.206 22.4381C293.039 23.6113 292.128 25.0144 291.531 26.5588ZM298.087 20.7567L297.089 25.3362L292.521 26.3427C293.636 23.864 295.615 21.8781 298.087 20.7567ZM276.585 31.9489L285.143 33.8334C285.753 37.4846 287.484 40.854 290.095 43.4719C292.707 46.0897 296.068 47.8253 299.711 48.4367L301.583 57.0149C295.037 56.7487 288.831 54.0222 284.199 49.3776C279.567 44.7332 276.849 38.5109 276.585 31.9489ZM298.308 42.0333L299.455 47.2749C296.203 46.6371 293.215 45.0419 290.872 42.6934C288.529 40.3448 286.938 37.3496 286.301 34.09L291.531 35.2384C292.13 36.779 293.043 38.1783 294.21 39.3478C295.376 40.5173 296.772 41.4317 298.308 42.0333ZM292.521 35.4545L297.089 36.4745L298.087 41.054C295.611 39.9308 293.632 37.9392 292.521 35.4545ZM303.679 57.0149L305.559 48.4367C309.201 47.8253 312.563 46.0897 315.174 43.4719C317.786 40.854 319.517 37.4846 320.127 33.8334L328.684 31.9489C328.42 38.5121 325.701 44.7352 321.067 49.3799C316.434 54.0246 310.226 56.7504 303.679 57.0149ZM313.739 35.2384L318.968 34.09C318.333 37.3507 316.742 40.3476 314.399 42.6973C312.056 45.0472 309.068 46.6433 305.815 47.2817L306.96 42.0401C308.498 41.4377 309.894 40.5222 311.061 39.3515C312.228 38.1808 313.139 36.7803 313.739 35.2384ZM307.183 41.0405L308.181 36.4745L312.749 35.468C311.631 37.9425 309.653 39.9239 307.183 41.0405ZM302.634 30.9087L307.627 35.9138L302.634 58.717L302.634 30.9019L297.641 35.9071L274.914 30.9019L302.655 30.9019L297.662 25.8968L302.655 3.09357L302.655 30.9019L307.647 25.8968L330.396 30.9019L302.634 30.9087Z" id="Shape" fill="#FFFFFF" fill-rule="evenodd" stroke="none" />
    <path d="M256.397 33.7186L239.418 33.7186C234.425 33.7186 231.136 37.9672 230.995 44.6947C230.854 51.4223 234.169 56.0085 239.755 56.0085L245.779 56.0085L245.779 64.114C245.779 65.7553 244.91 66.6403 243.623 66.6403C242.335 66.6403 241.447 65.8905 241.447 64.114L241.447 60.291L231.339 60.291C231.157 69.1461 236.454 69.5785 243.157 69.6324C249.862 69.6865 252.281 67.7007 255.219 64.6544L255.219 35.9342C255.221 35.2979 255.462 34.6859 255.892 34.2185L256.397 33.7186ZM245.745 38.0957L245.745 51.4696C245.745 52.0069 245.532 52.5224 245.153 52.9024C244.773 53.2823 244.259 53.4959 243.723 53.4959C243.188 53.4959 242.673 53.2823 242.294 52.9024C241.915 52.5224 241.702 52.0069 241.702 51.4696L241.702 38.0957C241.702 37.5582 241.915 37.0427 242.294 36.6627C242.673 36.2828 243.188 36.0692 243.723 36.0692C244.259 36.0692 244.773 36.2828 245.153 36.6627C245.532 37.0427 245.745 37.5582 245.745 38.0957ZM204.373 55.9613L204.966 55.3398C205.324 54.9811 205.53 54.4967 205.539 53.989L205.539 36.2583C205.589 35.9099 205.562 35.5547 205.46 35.2176C205.358 34.8805 205.185 34.5696 204.952 34.3064L204.42 33.7051L214.703 33.7051L214.703 35.056C216.98 33.7917 219.552 33.1553 222.155 33.2121C225.308 33.354 227.491 35.1303 227.491 37.4268L227.491 53.7594C227.471 54.0469 227.513 54.3353 227.612 54.6055C227.713 54.8758 227.869 55.1216 228.071 55.3263L228.663 55.9613L218.428 55.9613L218.428 39.3452C218.428 38.0483 217.654 37.3188 216.603 37.3188C216.342 37.3173 216.085 37.3696 215.846 37.4725C215.606 37.5754 215.39 37.7267 215.212 37.9168C215.034 38.107 214.896 38.332 214.808 38.5778C214.721 38.8235 214.685 39.0848 214.703 39.3452L214.703 55.9613L204.373 55.9613ZM192.13 41.7026L192.13 38.1699C192.155 37.8817 192.121 37.5915 192.028 37.3176C191.935 37.0437 191.786 36.7924 191.59 36.5795C191.395 36.3665 191.157 36.1967 190.893 36.0811C190.629 35.9652 190.343 35.9061 190.055 35.9071C189.774 35.9008 189.494 35.9534 189.234 36.0615C188.975 36.1695 188.74 36.3308 188.546 36.5348C188.352 36.7389 188.202 36.9813 188.108 37.2465C188.012 37.5119 187.973 37.7941 187.993 38.0753L187.993 40.2774L179.119 40.2774C179.294 38.4874 179.409 37.1229 180.54 35.8801C181.976 34.286 184.549 33.6849 188.073 33.7119L202.142 33.7119L201.59 34.2927C201.2 34.6761 200.975 35.1974 200.964 35.7451L200.964 53.6513C200.915 54.2723 201.095 54.8894 201.469 55.3872L202.028 55.9883L191.907 55.9883L191.907 54.759C189.407 55.9883 185.998 56.5963 183.445 56.0018C180.702 55.3263 178.587 52.5233 178.62 49.1392C178.674 43.7897 182.305 41.7093 186.369 41.7093L192.13 41.7026ZM190.055 44.053C191.544 44.053 192.203 45.1203 192.203 46.7008L192.203 50.6049C192.243 51.2165 192.038 51.8183 191.636 52.2792C191.232 52.7399 190.665 53.0219 190.055 53.0636C189.438 53.0287 188.859 52.7507 188.445 52.2903C188.03 51.8298 187.815 51.2241 187.844 50.6049L187.844 46.7008C187.844 45.1203 188.566 44.053 190.055 44.053ZM176.437 33.6984L175.844 34.3199C175.486 34.6795 175.281 35.1633 175.271 35.6707L175.271 53.2325C175.221 53.5821 175.248 53.9383 175.35 54.2765C175.451 54.6146 175.624 54.9268 175.858 55.1913L176.396 55.7924L166.107 55.7924L166.107 54.4415C163.828 55.7014 161.257 56.3374 158.656 56.2855C155.502 56.1437 153.319 54.3605 153.319 52.0707L153.319 35.8599C153.339 35.5712 153.299 35.2815 153.199 35.0101C153.099 34.7386 152.942 34.4917 152.739 34.286L152.146 33.6512L162.389 33.6512L162.389 49.9836C162.389 51.2805 163.17 52.2057 164.221 52.1923C164.491 52.1753 164.755 52.1043 164.996 51.9833C165.238 51.8622 165.455 51.6939 165.63 51.4878C165.806 51.2819 165.938 51.0426 166.021 50.7842C166.102 50.5259 166.132 50.2535 166.107 49.9836L166.107 33.6984L176.437 33.6984ZM149.822 33.6984L133.017 33.6984C127.551 33.6984 124.257 38.2779 124.324 44.9987C124.392 51.7194 127.842 55.9748 133.313 55.9613L139.255 55.9613L139.255 67.2346C139.282 67.5341 139.24 67.8355 139.136 68.117C139.031 68.3985 138.865 68.6532 138.65 68.8624L138.071 69.5379L149.922 69.5379L149.249 68.8083C148.912 68.4143 148.722 67.9155 148.709 67.3968L148.709 35.9679C148.669 35.3753 148.862 34.7904 149.249 34.3401L149.822 33.6984ZM136.972 35.9003C137.551 35.8912 138.11 36.1092 138.531 36.5081C138.951 36.9069 139.199 37.4548 139.222 38.0348L139.222 51.4898C139.236 51.7663 139.194 52.0426 139.099 52.3025C139.003 52.5624 138.858 52.8005 138.67 53.0027C138.48 53.205 138.254 53.3672 138.002 53.4797C137.75 53.5923 137.477 53.653 137.201 53.6581C136.621 53.6654 136.06 53.4449 135.64 53.0436C135.218 52.6422 134.971 52.0918 134.95 51.5101L134.95 38.0483C134.933 37.7721 134.974 37.4956 135.068 37.2354C135.162 36.9754 135.309 36.7374 135.498 36.5362C135.687 36.335 135.916 36.1747 136.169 36.0654C136.422 35.9561 136.696 35.8998 136.972 35.9003ZM87.1774 55.8937L87.7703 55.2724C88.1287 54.9135 88.334 54.4291 88.343 53.9214L88.343 36.2583C88.3926 35.9099 88.3658 35.5547 88.2645 35.2176C88.1633 34.8805 87.9901 34.5696 87.7568 34.3064L87.2178 33.7051L97.5069 33.7051L97.5069 35.056C99.7846 33.7917 102.356 33.1553 104.959 33.2121C108.113 33.354 110.296 35.1303 110.296 37.4268L110.296 53.6918C110.276 53.9793 110.317 54.2678 110.417 54.538C110.517 54.8082 110.673 55.054 110.875 55.2589L111.468 55.8937L101.24 55.8937L101.24 39.433C101.24 38.1361 100.458 37.2851 99.407 37.2918C99.1399 37.301 98.8773 37.3643 98.6353 37.4783C98.3934 37.5922 98.177 37.7541 97.9994 37.9544C97.8217 38.1546 97.6864 38.3889 97.6018 38.6431C97.5171 38.8972 97.4848 39.1659 97.5069 39.433L97.5069 55.8937L87.1774 55.8937ZM63.5941 30.9021L66.2894 27.7476L78.7009 27.7476L81.3961 30.9021L77.4813 30.9021L76.4302 29.5511L68.5938 29.5511L67.5494 30.9021L63.5941 30.9021ZM84.8999 45.3904L70.5748 45.3904L70.5748 51.8479C70.5748 53.4757 71.5383 54.2794 72.6973 54.1983C72.9842 54.1778 73.2643 54.1007 73.5214 53.9713C73.7786 53.8418 74.0076 53.6628 74.1954 53.4444C74.3833 53.226 74.5262 52.9724 74.6161 52.6984C74.7058 52.4244 74.7407 52.1354 74.7186 51.8479L74.7186 47.7275L84.7652 47.7275C84.6697 49.6387 83.9607 51.4677 82.7437 52.942C80.9447 55.2656 77.7508 56.6705 72.6366 56.63C65.5009 56.5759 60.4272 53.8201 60.4137 44.9176C60.4002 36.0153 65.063 33.1175 72.6771 33.131C79.9205 33.131 83.8286 36.2314 84.6506 41.2365C84.7652 41.9524 84.9134 44.553 84.9067 45.3634L84.8999 45.3904ZM72.6568 35.5559C73.2055 35.5787 73.7237 35.8152 74.1012 36.2151C74.4787 36.615 74.6857 37.1466 74.6783 37.697L74.6783 42.3847L70.5748 42.3847L70.5748 37.697C70.5639 37.4226 70.608 37.1487 70.7043 36.8917C70.8007 36.6344 70.9473 36.3992 71.1357 36.1997C71.3239 36.0002 71.5502 35.8405 71.801 35.7299C72.0519 35.6193 72.3222 35.5601 72.5961 35.5559L72.6568 35.5559ZM72.4075 58.4672C74.8332 58.4672 76.8142 59.3317 76.8142 60.3923C76.8142 61.4527 74.8332 62.3106 72.4075 62.3106C69.9818 62.3106 68.0546 61.4662 68.0546 60.3923C68.0546 59.3183 70.0356 58.4672 72.4614 58.4672L72.4075 58.4672ZM46.4524 33.6916L57.9813 33.6916L57.1929 34.5697C56.9092 34.9608 56.7689 35.4379 56.7953 35.9207L56.7953 53.6783C56.7689 54.161 56.9092 54.6382 57.1929 55.0292L57.9813 55.914L46.4524 55.914L47.2407 55.0292C47.5254 54.6387 47.6659 54.1612 47.6383 53.6783L47.6383 35.9477C47.6648 35.4649 47.5244 34.9878 47.2407 34.5968L46.4524 33.6916ZM0 26.7683L31.1839 26.7683L31.1839 23.6409C31.1785 23.2005 31.0077 22.7785 30.7054 22.4589L30.0317 21.6686L41.8907 21.6686L41.1023 22.4589C40.788 22.8186 40.6218 23.2845 40.6374 23.7625L40.6374 26.7683L45.536 26.7683L45.536 29.5714L40.6644 29.5714L40.6644 53.8066C40.6669 54.2714 40.8451 54.7179 41.1629 55.0561L41.8839 55.833L24.6614 55.833C20.8746 55.833 17.1888 52.9555 16.4881 47.0521C16.3052 45.4814 16.3052 43.8946 16.4881 42.3239C17.2091 36.7718 20.531 33.6916 24.7624 33.6916L31.1839 33.6916L31.1839 29.5714L0 29.5714L0 26.7683ZM52.2201 26.7683C54.6527 26.7683 56.6 27.795 56.6 29.0445L56.6 29.281C56.6 30.3954 54.6863 31.3073 52.3078 31.341L52.0855 31.341C49.7271 31.3275 47.8404 30.3954 47.8404 29.2945C47.8371 29.2585 47.8371 29.2223 47.8404 29.1864C47.8361 29.1392 47.8361 29.0917 47.8404 29.0445C47.8404 27.7815 49.8079 26.7548 52.2471 26.7548L52.2201 26.7683ZM31.1704 38.2374L31.1704 51.294C31.1704 52.4962 30.5505 53.6107 29.2568 53.6107C27.9631 53.6107 27.3297 52.6044 27.3297 51.294L27.3297 38.2442C27.3297 36.6907 28.3337 35.9207 29.3982 35.9342C30.4629 35.9477 31.1704 36.9609 31.1704 38.2442" id="Shape" fill="#FFFFFF" fill-rule="evenodd" stroke="none" />
  </g>
</svg>